# xmcd
#
# Track frame offsets:
# 150
# 18799
# 42808
# 67062
#
# Disc length: 1168 seconds
#
#
# Revision: 3
# Processed by: cddbd v1.5.1PL0 Copyright (c) Steve Scherf et al.
# Submitted via: FreeRIP 2.942 
#
DISCID=2a048e04
DTITLE=Pale - Pale Live Sampler
DYEAR=2004
DGENRE=
TTITLE0=It Wont Belong
TTITLE1=Doctor Rub
TTITLE2=Curebind
TTITLE3=Magnitudal Fool
EXTD=
EXTT0=
EXTT1=
EXTT2=
EXTT3=
PLAYORDER=
